<?xml version="1.0" encoding="UTF-8"?>
<!-- Created with Inkscape (http://www.inkscape.org/) -->
<svg width="7.8588mm" height="7.8588mm" version="1.1" viewBox="0 0 7.8588 7.8588" xmlns="http://www.w3.org/2000/svg" xmlns:xlink="http://www.w3.org/1999/xlink">
 <g transform="translate(-10.869 -46.108)" fill="none">
  <path d="m12.96 52.615c-0.0086-0.34396-0.01721-0.68818 0.14631-1.0024 0.16352-0.31426 0.49914-0.59824 0.71426-1.3985 0.21512-0.80021 0.30978-2.1169 0.45192-2.7753 0.14214-0.65846 0.33146-0.65846 0.52052-0.65846" stroke="#760000" stroke-linecap="round" stroke-width=".26458px"/>
  <path d="m11.065 50.004c-0.0089 0.97753 0.38463 1.9527 1.0695 2.6502 0.68491 0.69752 1.6528 1.1088 2.6303 1.1177 0.97753 0.0089 1.9527-0.38463 2.6502-1.0695 0.69752-0.68491 1.1088-1.6528 1.1177-2.6303 0.0089-0.97753-0.38463-1.9527-1.0695-2.6502-0.68491-0.69752-1.6528-1.1088-2.6303-1.1177-0.97753-0.0089-1.9527 0.38463-2.6502 1.0695-0.69752 0.68491-1.1088 1.6528-1.1177 2.6303z" stroke="#000" stroke-width=".39074px"/>
  <g stroke="#760000" stroke-linecap="round" stroke-width=".26458px">
   <path d="m14.406 51.376v1.3167"/>
   <path d="m16.626 52.615c0.0086-0.34396 0.01721-0.68818-0.14631-1.0024-0.16352-0.31426-0.49914-0.59824-0.71426-1.3985-0.21512-0.80021-0.30978-2.1169-0.45192-2.7753-0.14214-0.65846-0.33146-0.65846-0.52052-0.65846"/>
   <path d="m15.18 51.376v1.3167"/>
  </g>
 </g>
</svg>
